<svg width="146" height="40" viewBox="0 0 146 40" fill="none" xmlns="http://www.w3.org/2000/svg">
<g clip-path="url(#clip0_917_14817)">
<path d="M42.0086 0.56543H40.8751V39.5891H42.0086V0.56543Z" fill="white"/>
<path d="M26.0092 6.81982H2.40503C2.10042 6.81982 1.85602 7.06214 1.85602 7.36416C1.85602 7.66618 2.10396 7.9085 2.40503 7.9085H26.0092C26.3138 7.9085 26.5582 7.66267 26.5582 7.36416C26.5582 7.06565 26.3102 6.81982 26.0092 6.81982Z" fill="white"/>
<path d="M26.0092 9.59424H2.40503C2.10042 9.59424 1.85602 9.83656 1.85602 10.1386C1.85602 10.4406 2.10396 10.6829 2.40503 10.6829H26.0092C26.3138 10.6829 26.5582 10.4406 26.5582 10.1386C26.5582 9.83656 26.3102 9.59424 26.0092 9.59424Z" fill="white"/>
<path d="M2.40149 9.2957H3.63058C3.9352 9.2957 4.1796 9.05339 4.1796 8.75137C4.1796 8.44935 3.9352 8.20703 3.63058 8.20703H2.40149C2.09688 8.20703 1.85248 8.44935 1.85248 8.75137C1.85248 9.05339 2.10042 9.2957 2.40149 9.2957Z" fill="white"/>
<path d="M26.0092 8.20703H24.7836C24.479 8.20703 24.2346 8.44935 24.2346 8.75137C24.2346 9.05339 24.4826 9.2957 24.7836 9.2957H26.0092C26.3138 9.2957 26.5582 9.05339 26.5582 8.75137C26.5582 8.44935 26.3103 8.20703 26.0092 8.20703Z" fill="white"/>
<path d="M15.4362 9.2957C15.7373 9.2957 15.9852 9.05339 15.9852 8.75137C15.9852 8.44935 15.7373 8.20703 15.4362 8.20703H12.978C12.6734 8.20703 12.4255 8.44935 12.4255 8.75137C12.4255 9.05339 12.6734 9.2957 12.978 9.2957H15.4362Z" fill="white"/>
<path d="M8.30254 8.1123L6.49255 8.73039L8.30254 9.34496L10.1125 8.73039L8.30254 8.1123Z" fill="white"/>
<path d="M20.1081 8.1123L18.2982 8.73039L20.1081 9.34496L21.9181 8.73039L20.1081 8.1123Z" fill="white"/>
<path d="M23.675 8.73032C23.675 8.40371 23.4058 8.1333 23.0764 8.1333C22.747 8.1333 22.4778 8.4002 22.4778 8.73032C22.4778 9.06043 22.747 9.32733 23.0764 9.32733C23.4058 9.32733 23.675 9.05692 23.675 8.73032Z" fill="white"/>
<path d="M17.7421 8.73032C17.7421 8.40371 17.4729 8.1333 17.1435 8.1333C16.8141 8.1333 16.5449 8.4002 16.5449 8.73032C16.5449 9.06043 16.8141 9.32733 17.1435 9.32733C17.4729 9.32733 17.7421 9.05692 17.7421 8.73032Z" fill="white"/>
<path d="M11.8694 8.73032C11.8694 8.40371 11.6002 8.1333 11.2708 8.1333C10.9413 8.1333 10.6721 8.4002 10.6721 8.73032C10.6721 9.06043 10.9413 9.32733 11.2708 9.32733C11.6002 9.32733 11.8694 9.05692 11.8694 8.73032Z" fill="white"/>
<path d="M5.93647 8.73032C5.93647 8.40371 5.66727 8.1333 5.33786 8.1333C5.00845 8.1333 4.73926 8.4002 4.73926 8.73032C4.73926 9.06043 5.00845 9.32733 5.33786 9.32733C5.66727 9.32733 5.93647 9.05692 5.93647 8.73032Z" fill="white"/>
<path d="M27.1887 0.558594C26.2571 0.558594 25.7152 1.33471 25.5771 1.57703C25.5098 1.56298 25.2264 1.51733 25.1378 1.51733C24.7872 1.51733 24.5994 1.55245 24.4719 1.64024C24.7128 1.79477 25.021 2.01601 25.0812 2.55333C24.5463 2.49011 24.3232 2.18809 24.1673 1.94929C24.0823 2.0722 24.0469 2.25833 24.0469 2.606C24.0469 2.67975 24.0469 2.76755 24.0504 2.8413C23.6573 2.87993 23.2712 3.11522 23.1083 3.33647C23.2712 3.56123 23.6573 3.79301 24.0504 3.83164C24.0504 3.90539 24.0469 3.99319 24.0469 4.06693C24.0469 4.41461 24.0823 4.60425 24.1673 4.72365C24.3409 4.45324 24.603 4.10556 25.2972 4.10556H25.4C25.4 4.15122 25.4035 4.19687 25.4035 4.2355C25.4035 4.83954 25.1237 5.38739 24.3834 5.38739C23.891 5.38739 23.6289 5.02918 23.5156 4.80442C23.5971 4.69204 23.6431 4.55508 23.6431 4.40407C23.6431 4.0283 23.3349 3.72277 22.9524 3.72277C22.5699 3.72277 22.2617 4.0283 22.2617 4.40407C22.2617 4.55508 22.3113 4.69204 22.3928 4.80442C22.2759 5.02918 22.0173 5.38739 21.525 5.38739C20.7847 5.38739 20.5049 4.83954 20.5049 4.2355C20.5049 4.19336 20.5049 4.15122 20.5084 4.10556H20.6111C21.3054 4.10556 21.5639 4.45324 21.7375 4.72365C21.8225 4.60074 21.8579 4.4111 21.8579 4.06693C21.8579 3.99319 21.8579 3.90539 21.8544 3.83164C22.2475 3.79301 22.6336 3.56123 22.7966 3.33647C22.6336 3.11522 22.2475 2.87993 21.8544 2.8413C21.8579 2.76755 21.8579 2.68326 21.8579 2.606C21.8579 2.25833 21.8225 2.06869 21.7375 1.94929C21.5816 2.18809 21.3585 2.49011 20.8236 2.55333C20.8874 2.01601 21.192 1.79477 21.4329 1.64024C21.3089 1.55245 21.1176 1.51733 20.7705 1.51733C20.6961 1.51733 20.6076 1.51733 20.5332 1.52435C20.4978 1.13454 20.2605 0.751746 20.0338 0.5902C19.8106 0.751746 19.5733 1.13454 19.5379 1.52435C19.4635 1.52435 19.3749 1.51733 19.3006 1.51733C18.9499 1.51733 18.7622 1.55245 18.6382 1.64024C18.8791 1.79477 19.1837 2.01601 19.2474 2.55333C18.7126 2.49011 18.4894 2.18809 18.3336 1.94929C18.2486 2.0722 18.2132 2.25833 18.2132 2.606C18.2132 2.67975 18.2132 2.76755 18.2202 2.8413C17.8235 2.87993 17.4375 3.11522 17.2781 3.33647C17.441 3.56123 17.8235 3.79301 18.2202 3.83164C18.2167 3.90539 18.2132 3.99319 18.2132 4.06693C18.2132 4.41461 18.2486 4.60425 18.3336 4.72365C18.5071 4.45324 18.7657 4.10556 19.46 4.10556H19.5627C19.5627 4.15122 19.5662 4.19687 19.5662 4.2355C19.5662 4.83954 19.2829 5.38739 18.5461 5.38739C18.0538 5.38739 17.7952 5.02918 17.6783 4.80442C17.7598 4.69204 17.8058 4.55508 17.8058 4.40407C17.8058 4.0283 17.4977 3.72277 17.1151 3.72277C17.0655 3.72277 17.0195 3.72628 16.9734 3.73682C16.6582 3.80003 16.4244 4.07747 16.4244 4.40758C16.4244 4.55859 16.4705 4.69556 16.5519 4.80793C16.4386 5.03269 16.1765 5.3909 15.6841 5.3909C14.9439 5.3909 14.664 4.84305 14.664 4.23901C14.664 4.19687 14.664 4.15473 14.6676 4.10908H14.7703C15.4645 4.10908 15.7231 4.45675 15.8967 4.72716C15.9817 4.60425 16.0171 4.41461 16.0171 4.07045C16.0171 3.9967 16.0171 3.9089 16.01 3.83515C16.4067 3.79652 16.7928 3.56474 16.9522 3.33998C16.7893 3.11873 16.4032 2.88344 16.01 2.84481C16.0136 2.77106 16.0171 2.68678 16.0171 2.60952C16.0171 2.26184 15.9817 2.0722 15.8967 1.9528C15.7408 2.1916 15.5177 2.49362 14.9828 2.55684C15.043 2.01952 15.3512 1.79828 15.592 1.64376C15.4681 1.55596 15.2804 1.52084 14.9297 1.52084C14.8553 1.52084 14.7668 1.52084 14.6924 1.52786C14.6534 1.13805 14.4196 0.755257 14.1929 0.593712C13.9663 0.755257 13.7325 1.13805 13.6971 1.52786C13.6227 1.52786 13.5341 1.52084 13.4597 1.52084C13.1091 1.52084 12.9178 1.55596 12.7938 1.64376C13.0347 1.79828 13.3429 2.01952 13.4031 2.55684C12.8682 2.49362 12.6451 2.1916 12.4892 1.9528C12.4042 2.07571 12.3688 2.26184 12.3688 2.60952C12.3688 2.68326 12.3688 2.77106 12.3723 2.84481C11.9792 2.88344 11.5931 3.11873 11.4302 3.33998C11.5931 3.56474 11.9792 3.79652 12.3723 3.83515C12.3688 3.9089 12.3688 3.9967 12.3688 4.07045C12.3688 4.41812 12.4042 4.60776 12.4892 4.72716C12.6663 4.45675 12.9249 4.10908 13.6191 4.10908H13.7219C13.7254 4.15473 13.7289 4.20038 13.7289 4.23901C13.7289 4.84305 13.4491 5.3909 12.7053 5.3909C12.2129 5.3909 11.9508 5.02918 11.8339 4.80793C11.9154 4.69556 11.9615 4.55859 11.9615 4.4111C11.9615 4.03533 11.6533 3.7298 11.2743 3.7298C10.8953 3.7298 10.5836 4.03533 10.5836 4.4111C10.5836 4.56211 10.6332 4.69907 10.7147 4.81496C10.5978 5.03972 10.3357 5.39441 9.84686 5.39441C9.11012 5.39441 8.82676 4.84657 8.82676 4.24253C8.82676 4.20038 8.82676 4.15824 8.8303 4.11259H8.93302C9.62726 4.11259 9.88583 4.46026 10.0629 4.73067C10.1479 4.60776 10.1834 4.41812 10.1834 4.07396C10.1834 4.00021 10.1834 3.91241 10.1798 3.83866C10.573 3.80003 10.9591 3.56825 11.122 3.34349C10.9591 3.12225 10.573 2.88695 10.1798 2.84832C10.1798 2.77457 10.1834 2.69029 10.1834 2.61303C10.1834 2.26535 10.1479 2.07571 10.0629 1.95631C9.90708 2.19512 9.68393 2.49714 9.14554 2.56035C9.2093 2.02304 9.51391 1.80179 9.75477 1.64727C9.6308 1.55947 9.44307 1.52435 9.09241 1.52435C9.01803 1.52435 8.92948 1.52435 8.85509 1.53138C8.81613 1.14156 8.58236 0.758769 8.35921 0.597224C8.13252 0.758769 7.89874 1.14156 7.85978 1.53138C7.7854 1.53138 7.69685 1.52435 7.62247 1.52435C7.2718 1.52435 7.08053 1.55947 6.9601 1.64727C7.20096 1.80179 7.50558 2.02304 7.56933 2.56035C7.03449 2.49714 6.81134 2.19512 6.65549 1.95631C6.57048 2.07923 6.53506 2.26535 6.53506 2.61303C6.53506 2.68678 6.53506 2.77457 6.5386 2.84832C6.14543 2.88695 5.75935 3.12225 5.59642 3.34349C5.75935 3.56825 6.14543 3.80003 6.5386 3.83866C6.53506 3.91241 6.53506 4.00021 6.53506 4.07396C6.53506 4.42163 6.57048 4.61127 6.65549 4.73067C6.82905 4.46026 7.08762 4.11259 7.78186 4.11259H7.88458C7.88812 4.15824 7.89166 4.2039 7.89166 4.24253C7.89166 4.84657 7.6083 5.39441 6.86801 5.39441C6.37567 5.39441 6.1171 5.03621 6.00021 4.81145C6.08168 4.69907 6.13127 4.56211 6.13127 4.4111C6.13127 4.03533 5.82311 3.7298 5.44057 3.7298C5.2493 3.7298 5.07574 3.80706 4.95177 3.93348C4.8278 4.0564 4.74987 4.22848 4.74987 4.41461C4.74987 4.56562 4.79946 4.70258 4.88093 4.81496C4.76404 5.03972 4.50193 5.39793 4.00959 5.39793C3.27284 5.39793 2.98948 4.85008 2.98948 4.24604C2.98948 4.2039 2.98948 4.16175 2.99302 4.1161H3.09574C3.78998 4.1161 4.04855 4.46377 4.22565 4.73419C4.31066 4.61127 4.34608 4.42163 4.34608 4.07747C4.34608 4.00372 4.34608 3.91592 4.339 3.84218C4.73216 3.80354 5.11824 3.57176 5.28118 3.347C5.11824 3.12576 4.73216 2.89046 4.339 2.85183C4.34254 2.77808 4.34608 2.6938 4.34608 2.61654C4.34608 2.26887 4.31066 2.07923 4.22565 1.95982C4.0698 2.19863 3.84665 2.50065 3.31181 2.56386C3.37202 2.02655 3.68018 1.8053 3.92104 1.65078C3.79706 1.56298 3.60579 1.52786 3.25513 1.52786C3.16658 1.52786 2.88322 1.57001 2.81592 1.58757C2.67778 1.34525 2.13585 0.569129 1.20429 0.569129C0.626941 0.558594 0.0779248 0.850078 0 0.927338C0.311699 0.927338 0.811127 0.955433 1.222 1.36281C1.80998 1.94226 1.84894 2.40934 1.84894 4.00021C1.84894 5.69995 2.72737 6.52874 3.99188 6.52874C4.71799 6.52874 5.45828 5.97738 5.45828 5.97738C5.45828 5.97738 6.19857 6.52874 6.92468 6.52874C7.69331 6.52874 8.37338 5.94226 8.37338 5.94226C8.37338 5.94226 9.05345 6.52874 9.82207 6.52874C10.5482 6.52874 11.2885 5.97738 11.2885 5.97738C11.2885 5.97738 12.0288 6.52874 12.7549 6.52874C13.527 6.52874 14.2036 5.94226 14.2036 5.94226C14.2036 5.94226 14.8801 6.52874 15.6523 6.52874C16.3784 6.52874 17.1187 5.97738 17.1187 5.97738C17.1187 5.97738 17.859 6.52874 18.5851 6.52874C19.3537 6.52874 20.0338 5.94226 20.0338 5.94226C20.0338 5.94226 20.7138 6.52874 21.4825 6.52874C22.2086 6.52874 22.9489 5.97738 22.9489 5.97738C22.9489 5.97738 23.6891 6.52874 24.4153 6.52874C25.6762 6.52874 26.5547 5.69995 26.5547 4.00021C26.5547 2.40934 26.6007 1.94226 27.1851 1.36281C27.596 0.951921 28.0954 0.927338 28.4071 0.927338C28.3257 0.850078 27.7767 0.558594 27.1816 0.558594" fill="white"/>
<path d="M2.22794 11.0586V30.5283C2.22794 36.2948 6.27294 39.5854 14.2036 39.5854C22.1342 39.5854 26.1827 36.2948 26.1827 30.5283V11.0586H2.22794ZM13.0878 12.2316L13.8812 12.3158L14.2 11.5924L14.5223 12.3158L15.3158 12.2316L14.8447 12.8672L15.3158 13.5064L14.5223 13.4221L14.2 14.1455L13.8812 13.4221L13.0878 13.5064L13.5589 12.8672L13.0878 12.2316ZM2.98239 12.2316L3.77581 12.3158L4.09459 11.5924L4.41691 12.3158L5.21033 12.2316L4.73924 12.8672L5.21033 13.5064L4.41691 13.4221L4.09459 14.1455L3.77581 13.4221L2.98239 13.5064L3.45348 12.8672L2.98239 12.2316ZM2.98239 21.7978L3.77581 21.8891L4.09459 21.1622L4.41691 21.8891L5.21033 21.7978L4.73924 22.4405L5.21033 23.0762L4.41691 22.9919L4.09459 23.7118L3.77581 22.9919L2.98239 23.0762L3.45348 22.4405L2.98239 21.7978ZM5.3591 32.646L4.56568 32.5617L4.2469 33.2886L3.92457 32.5617L3.13116 32.646L3.60225 32.0068L3.13116 31.3712L3.92457 31.4589L4.2469 30.7355L4.56568 31.4589L5.3591 31.3712L4.88801 32.0068L5.3591 32.646ZM14.2036 35.7469C9.62371 35.7469 7.57287 34.3913 6.66965 32.9058H21.7375C20.8307 34.3913 18.7834 35.7469 14.2 35.7469M16.7715 30.7671L17.5827 31.7118L17.1647 31.8523C17.0903 31.8804 16.9911 31.9541 16.9451 32.0208L16.853 32.1473H15.9108C15.3724 32.1473 14.9368 31.7153 14.9368 31.1815V26.7039L15.5035 27.8207C15.5779 27.9647 15.7514 28.0489 15.8967 28.0103L16.1623 27.9401V28.1613C16.1623 28.4282 16.18 28.6635 16.2084 28.8672C16.3359 29.8189 16.722 30.1315 16.9026 30.2298L16.7574 30.4229C16.6865 30.5213 16.6936 30.6758 16.7715 30.7671ZM22.4353 30.1244C22.4353 30.6793 22.3821 31.4028 22.1023 32.1438H20.2109L19.5733 30.7074C19.8319 30.4335 19.9913 30.0647 19.9913 29.6609C19.9913 29.3834 19.9169 29.1201 19.7823 28.8953L19.042 27.6275L18.1529 25.1201L18.0892 24.0946L18.2875 23.9892C18.4292 23.912 18.5001 23.7258 18.4505 23.5748L18.3903 23.3992C18.3407 23.2482 18.1671 23.1499 18.0113 23.178L17.7208 23.2272L17.2958 22.8935C17.232 22.8444 17.1187 22.8198 17.0407 22.8338L16.7786 22.883L16.18 22.4124C16.1163 22.3597 16.0277 22.3738 15.9781 22.4405L15.6275 22.9216C15.5566 23.02 15.5531 23.1815 15.6168 23.2798L16.1552 24.1438V25.6855H15.7727C15.5637 25.6855 15.3901 25.4642 15.3901 25.1833V24.6881C15.3901 24.6073 15.3441 24.4985 15.2874 24.4423L14.9403 24.0946V22.1174C17.4622 21.8716 19.3962 20.4949 19.3962 18.8268C19.3962 16.9901 17.0337 15.4976 14.1221 15.4976C11.2105 15.4976 8.85155 16.9901 8.85155 18.8268C8.85155 20.4914 10.7855 21.8716 13.3074 22.1174V31.1745C13.3074 31.7083 12.8718 32.1402 12.3334 32.1402H6.30128C6.02146 31.3992 5.96833 30.6723 5.96833 30.1209V14.6793H22.4388V30.1244H22.4353ZM25.276 32.646L24.4826 32.5617L24.1602 33.2886L23.8379 32.5617L23.0445 32.646L23.5156 32.0068L23.0445 31.3712L23.8379 31.4589L24.1602 30.7355L24.4826 31.4589L25.276 31.3712L24.8049 32.0068L25.276 32.646ZM25.4212 23.0797L24.6278 22.9954L24.3055 23.7153L23.9831 22.9954L23.1897 23.0797L23.6608 22.444L23.1897 21.8014L23.9831 21.8927L24.3055 21.1657L24.6278 21.8927L25.4212 21.8014L24.9501 22.444L25.4212 23.0797ZM25.4212 13.5099L24.6278 13.4256L24.3055 14.149L23.9831 13.4256L23.1897 13.5099L23.6608 12.8707L23.1897 12.2351L23.9831 12.3193L24.3055 11.5959L24.6278 12.3193L25.4212 12.2351L24.9501 12.8707L25.4212 13.5099Z" fill="white"/>
<path d="M73.4654 1.43994H68.1771C67.7167 1.43994 67.4617 1.69279 67.3589 2.12475L65.5454 9.49613C65.4958 9.74899 65.2904 9.74899 65.2408 9.49613L63.4273 2.12475C63.3246 1.69279 63.0695 1.43994 62.6091 1.43994H57.3208C56.8108 1.43994 56.5557 1.69279 56.5557 2.1985V18.4127C56.5557 18.8939 56.8108 19.1713 57.3208 19.1713H60.1828C60.6928 19.1713 60.9479 18.8939 60.9479 18.4127V8.43204C60.9479 8.25294 61.1781 8.22835 61.2277 8.40746L63.7036 18.5146C63.8063 18.9465 64.0861 19.1713 64.5466 19.1713H66.2326C66.693 19.1713 66.9729 18.943 67.0756 18.5146L69.555 8.40746C69.6046 8.23186 69.8348 8.25645 69.8348 8.43204V18.4127C69.8348 18.8939 70.1146 19.1713 70.5999 19.1713H73.4619C73.9719 19.1713 74.2269 18.8939 74.2269 18.4127V2.20201C74.2269 1.69631 73.9719 1.44345 73.4619 1.44345" fill="white"/>
<path d="M100.233 6.55662C100.233 6.05091 100.512 5.79806 100.998 5.79806H102.376C103.601 5.79806 104.214 5.94907 104.214 7.51886V13.0922C104.214 14.6128 103.601 14.813 102.376 14.813H100.998C100.512 14.813 100.233 14.5355 100.233 14.0544V6.55662ZM96.6055 19.1712H102.301C107.104 19.1712 108.687 17.2221 108.687 13.0676V7.52238C108.687 3.36785 107.104 1.44336 102.301 1.44336H96.6055C96.0955 1.44336 95.8405 1.7208 95.8405 2.2265V18.4126C95.8405 18.8938 96.1203 19.1712 96.6055 19.1712Z" fill="white"/>
<path d="M115.184 5.75601C115.184 5.03608 115.97 4.58305 116.6 4.94477L119.912 6.84117C120.543 7.20289 120.543 8.10193 119.912 8.46365L116.6 10.36C115.97 10.7218 115.184 10.2687 115.184 9.54881V5.75952V5.75601ZM111.78 19.1713H114.642C115.102 19.1713 115.435 18.8412 115.435 18.3846V14.3846C115.435 13.9281 115.768 13.598 116.225 13.598H117.249C117.326 13.598 117.401 13.6471 117.454 13.7244L120.11 18.8166C120.213 19.0449 120.443 19.1713 120.698 19.1713H123.61C124.403 19.1713 124.811 18.4619 124.453 17.8017L121.743 12.8113C121.694 12.6849 121.719 12.5585 121.821 12.4812C123.174 11.519 123.762 9.8719 123.762 7.51896C123.762 3.36444 121.924 1.43994 117.376 1.43994H111.783C111.323 1.43994 110.99 1.77006 110.99 2.22308V18.3846C110.99 18.8412 111.323 19.1713 111.783 19.1713" fill="white"/>
<path d="M129.713 1.43994H126.904C126.419 1.43994 126.139 1.69279 126.139 2.1985V18.4127C126.139 18.8939 126.419 19.1713 126.904 19.1713H129.713C130.223 19.1713 130.478 18.8939 130.478 18.4127V2.20201C130.478 1.69631 130.223 1.44345 129.713 1.44345" fill="white"/>
<path d="M137.428 6.55662C137.428 6.05091 137.707 5.79806 138.193 5.79806H139.57C140.796 5.79806 141.409 5.94907 141.409 7.51886V13.0922C141.409 14.6128 140.796 14.813 139.57 14.813H138.193C137.707 14.813 137.428 14.5355 137.428 14.0544V6.55662ZM133.8 19.1712H139.496C144.299 19.1712 145.882 17.2221 145.882 13.0676V7.52238C145.882 3.36785 144.299 1.44336 139.496 1.44336H133.8C133.29 1.44336 133.035 1.7208 133.035 2.2265V18.4126C133.035 18.8938 133.315 19.1712 133.8 19.1712Z" fill="white"/>
<path d="M60.1544 21.8154H57.3456C56.8603 21.8154 56.5805 22.0683 56.5805 22.574V38.7847C56.5805 39.2658 56.8603 39.5433 57.3456 39.5433H60.1544C60.6645 39.5433 60.9195 39.2658 60.9195 38.7847V22.574C60.9195 22.0683 60.6645 21.8154 60.1544 21.8154Z" fill="white"/>
<path d="M76.299 21.8154H73.4371C72.9518 21.8154 72.672 22.0683 72.672 22.574V30.7566C72.672 31.0095 72.4666 31.0586 72.3674 30.8339L68.8926 22.3984C68.712 21.9945 68.4322 21.8154 68 21.8154H64.2455C63.7602 21.8154 63.4804 22.0683 63.4804 22.574V38.7847C63.4804 39.2658 63.7602 39.5433 64.2455 39.5433H67.1075C67.6175 39.5433 67.8725 39.2658 67.8725 38.7847V30.6021C67.8725 30.3492 68.078 30.3001 68.1807 30.5248L71.6554 38.9603C71.8361 39.3642 72.1159 39.5433 72.5516 39.5433H76.3061C76.8162 39.5433 77.0712 39.2658 77.0712 38.7847V22.574C77.0712 22.0683 76.8162 21.8154 76.3061 21.8154" fill="white"/>
<path d="M96.2549 33.8435V30.423C96.2549 29.9173 95.9998 29.6644 95.4898 29.6644H90.3822C89.8969 29.6644 89.6171 29.9173 89.6171 30.423V32.4493C89.6171 32.9304 89.8969 33.2079 90.3822 33.2079H91.8627C91.8627 34.4476 91.7352 35.6381 89.8438 35.6381C87.9523 35.6381 87.8248 34.4476 87.8248 32.4985V28.8532C87.8248 26.9041 87.9523 25.7136 89.8438 25.7136C91.2995 25.7136 91.7352 26.423 91.8379 27.6381C91.8875 28.1719 92.1709 28.3966 92.6809 28.2983L95.5677 27.6662C96.0282 27.5643 96.2584 27.2869 96.2301 26.8304C96.1025 24.8567 95.2064 21.3589 89.8438 21.3589C83.7904 21.3589 83.4327 25.8435 83.4327 27.5152V33.847C83.4327 35.5187 83.7904 40.0033 89.8438 40.0033C95.8971 40.0033 96.2549 35.5187 96.2549 33.847" fill="white"/>
<path d="M106.661 30.6793H102.84C102.113 30.6793 101.656 29.8997 102.021 29.2746L103.934 25.991C104.299 25.3659 105.206 25.3659 105.57 25.991L107.483 29.2746C107.848 29.8997 107.391 30.6793 106.665 30.6793M110.898 38.6829V27.9436C110.898 24.7513 110.388 21.3589 104.639 21.3589C98.8902 21.3589 98.3801 24.7513 98.3801 27.9436V38.6829C98.3801 39.2412 98.6599 39.5433 99.1452 39.5433H102.007C102.517 39.5433 102.772 39.2904 102.772 38.7847V36.5793C102.772 36.0736 103.052 35.8207 103.537 35.8207H105.733C106.243 35.8207 106.498 36.0736 106.498 36.5793V38.7847C106.498 39.2904 106.778 39.5433 107.264 39.5433H110.125C110.636 39.5433 110.891 39.2377 110.891 38.6829" fill="white"/>
<path d="M130.23 21.8154H124.942C124.481 21.8154 124.226 22.0683 124.124 22.5002L122.31 29.8716C122.261 30.1245 122.055 30.1245 122.005 29.8716L120.192 22.5002C120.089 22.0683 119.834 21.8154 119.374 21.8154H114.085C113.575 21.8154 113.32 22.0683 113.32 22.574V38.7847C113.32 39.2658 113.575 39.5433 114.085 39.5433H116.947C117.458 39.5433 117.713 39.2658 117.713 38.7847V28.804C117.713 28.6249 117.943 28.6003 117.992 28.7794L120.468 38.8865C120.571 39.3185 120.851 39.5433 121.311 39.5433H122.997C123.458 39.5433 123.738 39.315 123.84 38.8865L126.32 28.7794C126.369 28.6038 126.6 28.6284 126.6 28.804V38.7847C126.6 39.2658 126.879 39.5433 127.365 39.5433H130.227C130.737 39.5433 130.992 39.2658 130.992 38.7847V22.574C130.992 22.0683 130.737 21.8154 130.227 21.8154" fill="white"/>
<path d="M145.046 21.8154H134.318C133.832 21.8154 133.553 22.0683 133.553 22.574V38.7847C133.553 39.2658 133.832 39.5433 134.318 39.5433H145.046C145.556 39.5433 145.812 39.2904 145.812 38.7847V35.9471C145.812 35.4414 145.556 35.1886 145.046 35.1886H138.866C138.38 35.1886 138.101 34.9111 138.101 34.43V33.6188C138.101 33.1131 138.38 32.8602 138.866 32.8602H142.826C143.336 32.8602 143.591 32.5828 143.591 32.1016V29.2641C143.591 28.7584 143.336 28.5055 142.826 28.5055H138.866C138.38 28.5055 138.101 28.2281 138.101 27.7469V26.9357C138.101 26.43 138.38 26.1772 138.866 26.1772H145.046C145.556 26.1772 145.812 25.8997 145.812 25.4186V22.581C145.812 22.0753 145.556 21.8225 145.046 21.8225" fill="white"/>
<path d="M79.4514 6.26169L89.6065 4.58653C89.7588 4.56195 89.8863 4.57249 90.0067 4.60058C90.1236 4.63219 90.237 4.68486 90.3361 4.76213C90.492 4.88153 90.6124 5.05712 90.6691 5.23623C90.6974 5.32753 90.7116 5.42235 90.708 5.51717C90.708 5.61551 90.6868 5.71384 90.6443 5.82973L87.0314 15.3855C86.9925 15.4873 86.9429 15.5716 86.8897 15.6418C86.8153 15.7367 86.7233 15.8139 86.617 15.8701C86.4576 15.9579 86.2663 16.0001 86.0821 15.9895C85.9901 15.9825 85.9015 15.9649 85.8165 15.9333C85.7315 15.9017 85.6536 15.8596 85.5792 15.8034C85.526 15.7612 85.4729 15.7121 85.4233 15.6489L78.8847 7.76827C78.8033 7.66643 78.7501 7.57161 78.7147 7.47679C78.6651 7.3328 78.6545 7.17828 78.6793 7.02025C78.7076 6.86572 78.7749 6.71472 78.8706 6.5918C78.9379 6.504 79.0193 6.43377 79.115 6.37407C79.2106 6.31788 79.3169 6.27573 79.455 6.25115L79.1929 4.68486L79.455 6.25115M92.302 2.25115C91.8734 1.92104 91.374 1.66818 90.8249 1.5242C90.2759 1.38021 89.6809 1.3486 89.0823 1.44694L78.9272 3.12209C78.3924 3.20989 77.893 3.39601 77.4573 3.6594C77.0216 3.92279 76.6462 4.25642 76.3451 4.63921C76.0653 4.99742 75.8457 5.39426 75.6969 5.81568C75.4737 6.44781 75.4029 7.13965 75.5127 7.82797C75.5694 8.17213 75.6686 8.51278 75.8173 8.8429C75.9661 9.17301 76.1644 9.48908 76.4053 9.78056L82.9439 17.6612C83.1423 17.9 83.3654 18.1142 83.6063 18.3003C84.0561 18.648 84.5626 18.8903 85.0868 19.0238C85.8696 19.2274 86.6843 19.1958 87.4352 18.9535C87.8107 18.8306 88.1719 18.655 88.5084 18.4267C88.8414 18.1985 89.146 17.914 89.4081 17.5839C89.6631 17.2608 89.8721 16.8921 90.0244 16.4917L93.6373 6.93596C93.8038 6.49347 93.8923 6.03693 93.903 5.59092C93.9207 4.92016 93.7684 4.27398 93.4885 3.70506C93.2087 3.13614 92.8014 2.63745 92.2984 2.24764" fill="#8DF2F3"/>
<path opacity="0.8" d="M79.1434 8.34775L88.0871 3.29771C88.2217 3.22045 88.3457 3.18884 88.4661 3.17479C88.5865 3.16426 88.7105 3.17479 88.8309 3.21342C89.0186 3.27313 89.1922 3.39604 89.3091 3.54705C89.3693 3.62431 89.4118 3.70508 89.4437 3.7999C89.4756 3.89121 89.4933 3.99306 89.4933 4.11597L89.4295 14.3214C89.4295 14.4303 89.4118 14.5251 89.3835 14.6094C89.3445 14.7253 89.2878 14.8271 89.2099 14.9184C89.093 15.0554 88.9266 15.1607 88.7495 15.2134C88.6609 15.238 88.5724 15.2521 88.4803 15.2521C88.3917 15.2521 88.3032 15.238 88.2111 15.2099C88.1473 15.1888 88.08 15.1607 88.0092 15.1186L79.1257 9.9632C79.0124 9.89648 78.9309 9.82624 78.8672 9.74547C78.768 9.62607 78.7042 9.48559 78.6759 9.33107C78.6476 9.17655 78.6582 9.01149 78.7078 8.86399C78.7432 8.75864 78.7928 8.66382 78.8601 8.57602C78.9309 8.49174 79.0159 8.41448 79.1364 8.34424L78.3465 6.96408L79.1364 8.34424M89.8085 0.193231C89.2914 0.028174 88.7353 -0.0350393 88.1686 0.0176385C87.6054 0.0703163 87.0316 0.242397 86.5073 0.540904L77.5637 5.59095C77.0926 5.85785 76.6888 6.20201 76.37 6.59885C76.0512 6.99569 75.8175 7.43818 75.6687 7.89823C75.5306 8.33019 75.4633 8.77971 75.4704 9.22572C75.481 9.89648 75.6545 10.5672 75.9981 11.1748C76.1717 11.4768 76.3842 11.7648 76.6392 12.0247C76.8942 12.2845 77.1882 12.5128 77.5177 12.7024L86.4011 17.8578C86.6703 18.0159 86.9536 18.1388 87.2441 18.2301C87.786 18.4022 88.3492 18.4549 88.8841 18.4022C89.6916 18.3249 90.4425 18.0159 91.0659 17.5312C91.3776 17.2889 91.6539 17.001 91.8877 16.6708C92.1215 16.3407 92.3092 15.972 92.4367 15.5716C92.5607 15.1818 92.6315 14.7639 92.6315 14.3355L92.6953 4.13002C92.6953 3.65943 92.6209 3.19938 92.4757 2.77795C92.2596 2.14231 91.8912 1.58744 91.4308 1.14845C90.9703 0.709473 90.4142 0.382871 89.805 0.189719" fill="#FF0074"/>
<path opacity="0.8" d="M79.3877 10.9114L86.1884 3.58572C86.2911 3.47685 86.3938 3.40661 86.5036 3.36096C86.6134 3.3153 86.7303 3.29072 86.8543 3.29072C87.0456 3.29072 87.2439 3.35393 87.3962 3.45929C87.4741 3.51197 87.5414 3.57869 87.5981 3.65244C87.6548 3.7297 87.7008 3.8175 87.7398 3.92988L90.7364 13.4294C90.7682 13.5313 90.7824 13.6226 90.7824 13.7104C90.7824 13.8298 90.7576 13.9422 90.7116 14.0475C90.6443 14.2091 90.5203 14.3566 90.3715 14.4584C90.2971 14.5076 90.2192 14.5462 90.1342 14.5743C90.0527 14.5989 89.9642 14.6129 89.8721 14.6129C89.8048 14.6129 89.734 14.6059 89.6596 14.5883L79.8623 12.411C79.7383 12.3829 79.6392 12.3408 79.5542 12.2846C79.4266 12.2038 79.3275 12.0914 79.2531 11.9545C79.1787 11.8175 79.1397 11.663 79.1397 11.5085C79.1397 11.3996 79.1574 11.2977 79.1964 11.1959C79.2354 11.0976 79.292 10.9992 79.3841 10.9009M86.8543 0.196777C86.3265 0.196777 85.7881 0.298621 85.2781 0.516356C84.768 0.730579 84.2899 1.06069 83.8896 1.49265L77.0889 8.81838C76.7311 9.20468 76.4584 9.64366 76.2813 10.1072C76.1042 10.5673 76.0192 11.0484 76.0192 11.5225C76.0192 11.965 76.0936 12.4005 76.2317 12.8149C76.4442 13.433 76.8055 14.0089 77.3085 14.4725C77.56 14.7042 77.8433 14.9079 78.1586 15.073C78.4738 15.238 78.8174 15.3645 79.1787 15.4452L88.976 17.6226C89.2735 17.6893 89.5746 17.7209 89.8721 17.7209C90.4282 17.7209 90.9666 17.605 91.4483 17.3978C92.1744 17.0888 92.7801 16.5796 93.2122 15.9439C93.4283 15.6279 93.6019 15.2767 93.7188 14.9009C93.8356 14.5251 93.9029 14.1283 93.9029 13.7174C93.9029 13.3171 93.8427 12.9097 93.7152 12.5128L90.7187 3.01328C90.5805 2.5743 90.3715 2.17044 90.1094 1.81925C89.7163 1.29248 89.2097 0.8851 88.6501 0.614688C88.0905 0.344275 87.4777 0.200289 86.8543 0.200289" fill="#0500F5"/>
</g>
<defs>
<clipPath id="clip0_917_14817">
<rect width="145.882" height="40" fill="white"/>
</clipPath>
</defs>
</svg>
